<?xml version="1.0" standalone="no"?>
<!DOCTYPE svg PUBLIC "-//W3C//DTD SVG 20010904//EN"
 "http://www.w3.org/TR/2001/REC-SVG-20010904/DTD/svg10.dtd">
<svg version="1.0" xmlns="http://www.w3.org/2000/svg"
 width="2000.000000pt" height="1500.000000pt" viewBox="0 0 2000.000000 1500.000000"
 preserveAspectRatio="xMidYMid meet">

<g transform="translate(0.000000,1500.000000) scale(0.100000,-0.100000)"
fill="#000000" stroke="none">
<path d="M9442 9553 c-25 -22 -1204 -2068 -1210 -2100 -3 -14 3 -32 13 -43 18
-20 41 -20 1755 -20 1714 0 1737 0 1755 20 10 11 16 29 13 43 -2 12 -274 490
-604 1061 -403 698 -606 1042 -621 1049 -17 7 -28 6 -45 -5 -13 -9 -129 -201
-258 -426 -129 -226 -237 -411 -240 -411 -3 -1 -113 186 -244 415 -132 228
-247 419 -257 425 -25 13 -34 11 -57 -8z m264 -550 c131 -227 223 -395 220
-405 -2 -10 -143 -258 -313 -553 l-308 -535 -457 0 c-252 0 -458 2 -458 6 0
10 1084 1883 1088 1879 2 -2 105 -178 228 -392z m1374 -563 c287 -498 525
-911 527 -917 4 -10 -91 -13 -454 -13 l-458 0 -310 538 c-171 295 -310 546
-310 557 0 11 101 195 224 408 l225 388 17 -28 c9 -15 252 -435 539 -933z
m-793 -440 l281 -490 -568 0 -568 0 282 490 c154 269 283 489 286 489 3 0 132
-220 287 -489z"/>
<path d="M2510 7780 l0 -70 2708 2 2707 3 3 68 3 67 -2711 0 -2710 0 0 -70z"/>
<path d="M12072 7783 l3 -68 2708 -3 2707 -2 0 70 0 70 -2710 0 -2711 0 3 -67z"/>
<path d="M2510 7500 l0 -70 2710 0 2710 0 0 70 0 70 -2710 0 -2710 0 0 -70z"/>
<path d="M12070 7500 l0 -70 2710 0 2710 0 0 70 0 70 -2710 0 -2710 0 0 -70z"/>
<path d="M6720 7010 l-55 -5 -3 -617 -2 -618 60 0 60 0 0 210 c0 205 1 210 20
210 36 0 96 -37 142 -89 25 -28 94 -113 153 -191 l107 -140 75 0 c59 0 73 3
66 13 -5 6 -80 100 -165 207 -143 181 -174 215 -224 247 -18 11 -18 12 6 28
70 48 330 333 330 362 0 9 -18 13 -64 13 l-64 0 -77 -92 c-138 -167 -252 -278
-284 -278 -20 0 -21 6 -23 373 l-3 372 -55 -5z"/>
<path d="M10108 7013 l-48 -4 0 -206 c0 -180 -2 -204 -15 -199 -81 31 -140 40
-251 41 -115 0 -123 -1 -179 -30 -82 -42 -110 -98 -126 -245 -14 -131 -5 -352
18 -434 21 -75 87 -148 148 -165 104 -28 248 -3 357 63 l58 34 6 -50 7 -50 49
4 c26 3 50 7 51 9 1 2 1 282 -1 622 -3 462 -7 617 -15 615 -7 -1 -33 -3 -59
-5z m-187 -483 c30 -5 73 -15 97 -21 l42 -12 -2 -271 -3 -271 -79 -39 c-68
-34 -91 -40 -161 -44 -103 -5 -146 12 -178 72 -21 39 -22 54 -22 256 0 201 1
218 22 263 16 34 32 52 55 62 39 17 152 19 229 5z"/>
<path d="M17408 7013 l-48 -4 0 -206 c0 -180 -2 -204 -15 -199 -75 28 -151 40
-260 41 -106 0 -126 -3 -168 -24 -103 -50 -128 -117 -134 -366 -8 -286 21
-398 120 -459 92 -57 242 -47 382 24 42 22 78 40 80 40 1 0 6 -21 10 -46 l7
-47 50 6 c28 4 51 8 52 9 0 2 0 281 -2 621 -2 473 -6 617 -15 615 -7 -1 -33
-3 -59 -5z m-187 -483 c30 -5 73 -15 97 -21 l42 -12 0 -267 0 -268 -45 -27
c-73 -42 -151 -65 -224 -65 -79 0 -127 21 -154 67 -29 51 -42 206 -30 360 12
152 29 199 83 225 40 20 145 24 231 8z"/>
<path d="M10525 6998 c-3 -7 -4 -285 -3 -618 l3 -605 58 -3 57 -3 0 621 0 620
-55 0 c-35 0 -57 -5 -60 -12z"/>
<path d="M2675 6848 c-6 -38 -165 -1070 -165 -1075 0 -2 28 -3 62 -1 l63 3 6
45 c4 25 35 239 68 475 34 237 64 446 67 465 6 31 11 17 48 -110 23 -80 93
-310 156 -512 l114 -368 71 0 71 0 132 443 c72 243 137 470 144 504 6 34 15
60 18 58 4 -3 10 -39 14 -82 4 -43 37 -267 74 -498 l68 -420 63 -3 63 -3 -6
28 c-3 15 -42 253 -86 528 -44 275 -83 512 -86 528 l-6 27 -88 0 -89 0 -30
-97 c-75 -245 -221 -745 -236 -811 -10 -40 -19 -72 -20 -70 -2 2 -13 41 -25
88 -20 80 -191 644 -246 813 l-26 77 -93 0 -94 0 -6 -32z"/>
<path d="M5313 6639 c-17 -5 -57 -32 -87 -60 l-56 -51 0 33 c0 70 -7 79 -61
79 l-49 0 0 -435 0 -435 60 0 60 0 0 334 0 334 33 28 c55 47 113 67 178 62 64
-5 69 0 69 73 0 33 -3 37 -31 43 -41 8 -76 6 -116 -5z"/>
<path d="M5900 6645 c-8 -2 -47 -8 -87 -15 -99 -16 -107 -24 -92 -83 6 -26 12
-47 14 -47 1 0 37 9 80 20 114 29 257 28 315 -3 59 -31 82 -78 88 -178 3 -48
1 -79 -5 -79 -5 0 -45 9 -89 20 -164 42 -318 36 -395 -15 -61 -40 -83 -100
-84 -225 0 -152 31 -221 120 -261 86 -39 269 -16 390 49 32 18 62 32 66 32 4
0 10 -20 13 -45 8 -48 16 -52 82 -39 l29 5 -3 282 c-3 316 -12 403 -47 463
-25 43 -77 82 -135 103 -33 12 -228 24 -260 16z m216 -462 l92 -16 6 -45 c3
-25 6 -70 6 -101 0 -55 -1 -56 -43 -82 -149 -93 -349 -104 -390 -22 -33 64
-27 214 10 255 36 40 135 44 319 11z"/>
<path d="M8823 6635 c-69 -19 -118 -40 -153 -65 -15 -11 -31 -20 -33 -20 -3 0
-7 19 -9 43 l-3 42 -52 3 -53 3 0 -435 0 -436 60 0 60 0 0 344 0 344 73 31
c40 16 103 35 140 41 123 19 190 -8 207 -85 5 -22 10 -183 10 -357 l0 -318 61
0 60 0 -3 363 -3 362 -25 50 c-36 71 -85 96 -199 101 -56 3 -104 -1 -138 -11z"/>
<path d="M11149 6634 c-42 -7 -87 -18 -101 -23 -25 -9 -26 -12 -16 -53 6 -24
14 -46 17 -51 4 -4 45 2 90 14 112 28 275 25 317 -7 57 -42 69 -69 72 -165 2
-49 0 -89 -5 -89 -4 0 -42 10 -83 21 -112 30 -251 36 -325 14 -119 -34 -162
-116 -153 -292 6 -124 32 -177 108 -215 44 -23 67 -28 125 -28 111 0 270 47
327 97 15 14 18 13 22 -8 18 -89 12 -82 68 -76 28 4 51 8 52 9 1 2 -1 50 -5
108 -4 58 -7 203 -8 322 -1 191 -3 224 -21 271 -21 55 -64 104 -115 130 -77
38 -226 47 -366 21z m296 -453 l80 -16 0 -105 0 -105 -75 -38 c-86 -43 -172
-61 -249 -54 -92 10 -127 67 -119 199 4 79 26 116 79 135 41 15 166 7 284 -16z"/>
<path d="M12661 6635 c-35 -8 -94 -30 -132 -49 -76 -37 -71 -39 -81 29 -3 16
-12 21 -51 23 l-47 3 0 -600 0 -601 60 0 60 0 0 190 0 189 68 -27 c60 -23 81
-26 192 -27 141 0 179 13 238 79 54 61 65 116 70 352 6 293 -17 372 -121 426
-53 27 -167 33 -256 13z m186 -119 c50 -25 65 -78 71 -251 5 -163 -8 -281 -36
-330 -27 -47 -74 -65 -167 -65 -81 0 -125 8 -202 36 l-43 16 0 267 0 267 58
28 c110 54 249 69 319 32z"/>
<path d="M13591 6639 c-18 -5 -55 -32 -82 -59 -53 -53 -54 -53 -61 25 -3 29
-5 30 -53 30 l-50 0 -3 -432 -2 -433 60 0 60 0 0 335 0 335 48 34 c59 43 118
60 181 53 l49 -6 5 57 c2 31 3 59 2 60 -8 10 -124 10 -154 1z"/>
<path d="M14119 6634 c-42 -7 -87 -18 -101 -23 -25 -9 -26 -12 -16 -53 6 -24
14 -46 17 -51 4 -4 42 2 86 13 112 29 246 28 305 -2 63 -32 90 -88 90 -185 0
-40 -3 -73 -6 -73 -3 0 -42 10 -87 22 -61 16 -113 21 -202 22 -106 1 -125 -2
-161 -21 -92 -49 -118 -112 -112 -273 3 -93 6 -110 30 -152 16 -25 45 -57 65
-70 34 -20 50 -23 143 -23 120 0 212 23 292 74 l47 30 6 -37 c4 -20 8 -43 10
-49 5 -14 45 -17 81 -7 21 6 21 6 17 322 -3 228 -8 331 -18 367 -17 60 -63
119 -113 144 -83 42 -228 52 -373 25z m296 -453 l80 -16 0 -105 0 -105 -75
-38 c-130 -65 -280 -74 -333 -21 -29 28 -37 62 -37 151 0 52 19 133 32 133 2
0 21 7 43 15 47 17 162 11 290 -14z"/>
<path d="M15097 6640 c-118 -30 -167 -99 -167 -235 0 -85 14 -128 56 -167 38
-35 93 -54 232 -79 63 -11 125 -24 138 -29 33 -13 46 -44 46 -112 0 -108 -33
-146 -131 -155 -87 -8 -171 12 -307 73 -7 3 -24 -16 -38 -43 -33 -58 -32 -59
92 -99 78 -26 101 -29 217 -29 140 0 181 12 232 67 70 75 82 275 22 353 -32
40 -67 53 -216 78 -200 35 -223 51 -223 158 0 120 67 150 259 114 44 -9 98
-22 120 -30 l41 -14 15 51 c8 28 12 54 10 58 -19 30 -319 60 -398 40z"/>
<path d="M16040 6645 c-8 -2 -47 -8 -87 -15 -99 -16 -107 -24 -92 -83 6 -26
12 -47 14 -47 1 0 37 9 80 20 114 29 257 28 315 -3 59 -31 82 -78 88 -178 3
-48 1 -79 -5 -79 -5 0 -45 9 -89 20 -170 44 -325 36 -402 -20 -57 -41 -77 -99
-77 -225 0 -147 33 -217 120 -256 86 -39 269 -16 390 49 32 18 62 32 66 32 4
0 10 -21 14 -46 l7 -47 50 6 c28 4 51 8 52 9 1 2 -1 149 -5 328 -5 275 -9 333
-24 373 -30 84 -100 137 -206 157 -47 9 -172 12 -209 5z m216 -462 l91 -16 7
-66 c12 -128 11 -133 -37 -162 -109 -68 -278 -98 -347 -62 -49 25 -63 62 -64
165 0 73 3 92 20 115 41 56 126 62 330 26z"/>
<path d="M4064 6626 c-3 -8 -4 -171 -2 -363 3 -374 6 -392 60 -450 60 -64 241
-72 361 -15 38 17 81 41 97 52 l29 21 7 -52 7 -51 49 4 c26 3 50 7 51 9 2 2 1
196 -1 432 l-4 427 -59 0 -59 0 0 -344 0 -343 -67 -31 c-89 -40 -136 -52 -205
-52 -70 0 -104 15 -126 54 -15 27 -17 76 -20 374 l-3 342 -55 0 c-38 0 -56 -4
-60 -14z"/>
<path d="M7524 6626 c-3 -8 -4 -169 -2 -358 5 -383 10 -416 72 -463 96 -73
295 -56 433 37 l41 28 7 -33 c15 -72 19 -76 91 -61 l29 5 -6 97 c-4 53 -7 247
-8 430 l-1 333 -57 -3 -58 -3 -3 -342 -2 -342 -54 -26 c-74 -36 -150 -55 -223
-55 -55 0 -67 4 -95 29 l-33 29 -5 354 -5 353 -58 3 c-44 2 -59 -1 -63 -12z"/>
</g>
</svg>
