<?xml version="1.0" standalone="no"?>
<!DOCTYPE svg PUBLIC "-//W3C//DTD SVG 20010904//EN"
 "http://www.w3.org/TR/2001/REC-SVG-20010904/DTD/svg10.dtd">
<svg version="1.0" xmlns="http://www.w3.org/2000/svg"
 width="1600.000000pt" height="1066.000000pt" viewBox="0 0 1600.000000 1066.000000"
 preserveAspectRatio="xMidYMid meet">

<g transform="translate(0.000000,1066.000000) scale(0.100000,-0.100000)"
fill="#000000" stroke="none">
<path d="M0 10012 l0 -649 26 -13 c31 -17 49 -50 59 -108 4 -23 18 -56 31 -71
44 -53 24 -69 -32 -26 -18 14 -36 25 -40 25 -4 0 -16 7 -26 17 -17 16 -18
-128 -18 -4585 l0 -4602 430 0 c389 0 465 4 415 24 -35 13 1 116 41 116 6 0
22 8 34 18 17 14 37 18 74 16 28 -1 39 0 24 2 -25 5 -28 10 -28 45 0 33 3 39
21 39 11 0 31 13 45 29 23 27 27 29 57 19 41 -14 39 -11 44 -54 4 -36 -12 -69
-28 -58 -5 3 -9 -12 -9 -33 0 -30 5 -40 22 -48 13 -6 27 -25 33 -46 21 -75
-99 -69 1287 -69 l1244 0 12 73 c26 168 44 231 68 250 33 26 30 56 -10 108
l-35 44 11 80 c6 49 17 86 27 95 9 8 31 45 49 81 29 57 33 74 30 120 -2 30 -8
62 -12 71 -12 27 34 41 140 43 99 2 114 7 114 36 0 10 5 19 10 19 6 0 10 -8
10 -17 0 -9 7 -25 16 -35 16 -17 18 -16 36 17 10 20 18 48 18 63 -1 39 29 166
41 170 5 2 9 14 9 27 0 12 7 25 15 29 8 3 15 15 15 26 0 28 8 25 43 -12 39
-44 46 -65 40 -120 -3 -28 -1 -48 6 -52 6 -4 11 -18 11 -31 0 -13 6 -25 13
-27 8 -3 14 -34 17 -90 6 -99 3 -118 -15 -118 -10 0 -11 -15 -7 -65 4 -54 10
-71 32 -95 16 -17 32 -30 37 -30 5 0 19 -9 31 -21 19 -17 22 -28 19 -82 -2
-35 -9 -63 -16 -65 -29 -10 -41 -35 -41 -89 0 -49 -4 -59 -30 -85 -16 -15 -30
-34 -30 -42 0 -31 -39 -63 -84 -68 -57 -7 -83 -30 -68 -62 10 -22 8 -91 -4
-128 -5 -17 12 -18 314 -18 l320 0 15 33 c9 18 13 46 10 65 -7 44 13 80 46 84
33 4 39 36 16 85 -12 26 -20 32 -25 22 -13 -21 -40 8 -40 43 0 16 -4 37 -10
47 -10 20 -1 99 10 81 5 -7 11 -6 20 5 12 14 11 23 -8 59 -26 48 -21 76 14 76
18 0 25 -7 30 -27 3 -16 13 -52 21 -82 8 -29 16 -59 17 -65 8 -35 20 -72 26
-81 4 -5 11 -36 15 -68 7 -62 44 -173 69 -213 9 -13 16 -32 16 -44 l0 -20
1330 0 1330 0 0 25 c0 22 -4 25 -39 25 -49 0 -85 37 -72 73 7 18 17 23 60 25
49 3 51 4 51 33 0 27 2 29 40 29 l40 0 0 -55 0 -55 40 0 40 0 0 -40 0 -40 40
0 c22 0 40 -4 40 -10 0 -7 895 -10 2665 -10 l2665 0 0 53 c0 36 7 66 24 98 19
34 23 55 19 85 -10 80 25 116 125 127 51 6 53 5 90 -33 30 -32 44 -40 73 -40
34 0 38 4 53 40 28 71 96 93 81 26 -8 -38 -10 -85 -7 -204 2 -86 4 -94 31
-122 l28 -30 356 0 356 0 -3 99 c-2 85 -6 104 -29 144 -32 55 -34 81 -7 110
30 31 54 13 57 -44 5 -83 24 -120 95 -192 37 -37 72 -67 78 -67 6 0 16 -11 22
-25 9 -21 18 -25 55 -25 23 0 43 4 43 8 0 5 19 15 42 23 32 10 42 11 46 1 2
-7 12 -12 23 -12 10 0 19 -4 19 -10 0 -6 30 -10 71 -10 l71 0 -7 28 c-3 15
-13 34 -21 43 -11 12 -14 48 -14 151 0 122 -2 141 -24 189 -19 41 -25 70 -24
122 0 48 -4 73 -15 85 -9 9 -19 41 -23 70 -5 42 -10 52 -25 52 -14 0 -19 8
-20 28 -1 16 -3 20 -6 9 -2 -9 -9 -17 -14 -17 -11 0 -23 46 -15 58 12 19 -23
34 -63 27 -42 -7 -78 5 -153 52 -21 13 -47 23 -58 23 -58 0 -85 113 -54 226
l17 63 -32 49 c-17 27 -31 57 -31 68 0 11 -11 35 -23 54 -38 56 -49 97 -36
142 12 45 39 60 82 45 24 -8 34 -6 58 12 54 40 80 45 249 47 111 1 185 7 225
17 33 9 97 24 142 34 77 16 84 16 99 1 16 -15 37 -99 36 -143 0 -11 -6 -72
-13 -135 -8 -63 -12 -158 -11 -210 9 -267 3 -435 -16 -504 -8 -29 -2 -73 19
-143 5 -17 7 -43 3 -58 -5 -19 -1 -31 14 -45 20 -19 20 -18 37 68 17 83 48
151 70 153 21 2 51 6 65 10 9 3 16 -6 20 -26 3 -16 13 -43 23 -60 9 -16 27
-50 40 -74 27 -52 47 -64 47 -27 0 31 17 78 33 91 24 19 57 73 57 94 0 11 9
25 20 31 11 6 20 17 20 25 0 8 4 15 9 15 5 0 11 8 15 17 3 10 11 27 18 38 7
11 14 22 16 24 1 3 8 -4 15 -13 27 -37 100 20 79 61 -6 10 -8 30 -5 43 3 20
-4 33 -36 63 -23 21 -41 41 -41 46 0 19 52 54 80 54 l30 0 0 423 0 422 -27 7
c-16 4 -310 8 -654 9 -569 2 -627 4 -649 19 -40 28 -58 22 -66 -21 -21 -124
-58 -187 -105 -180 -34 5 -50 46 -56 151 -3 50 -10 97 -15 104 -5 6 -35 15
-66 19 -91 11 -121 58 -89 137 8 18 21 38 30 46 23 19 22 78 -3 126 -11 22
-20 53 -20 71 0 37 18 94 30 94 5 0 11 13 15 29 8 38 43 75 82 89 30 10 33 9
52 -24 12 -19 21 -38 21 -42 0 -4 21 -12 48 -19 56 -13 72 -4 72 41 0 36 -15
56 -42 56 -9 0 -22 9 -28 20 -8 15 -6 21 10 30 11 6 20 17 20 24 0 8 7 16 15
20 8 3 12 11 10 19 -3 7 6 23 20 35 14 12 25 26 25 32 0 5 5 10 10 10 6 0 10
-17 10 -39 0 -21 6 -43 13 -49 13 -11 71 -11 83 1 13 13 24 7 36 -17 6 -14 28
-32 49 -40 l39 -16 -3 -78 c-1 -52 2 -83 10 -90 9 -9 14 -9 19 -1 3 6 18 9 33
6 44 -9 55 5 53 70 -2 32 0 83 4 114 5 50 9 58 29 61 31 6 86 -13 113 -40 25
-25 60 -29 68 -7 4 8 1 22 -6 30 -10 12 -10 15 1 15 14 0 23 12 54 80 23 47
63 79 101 80 44 0 70 -49 59 -111 -4 -24 -7 -57 -7 -74 1 -16 3 -102 6 -190 2
-88 0 -224 -6 -303 -11 -158 -9 -177 22 -210 21 -22 24 -22 291 -22 148 1 274
-2 279 -5 7 -4 10 1266 10 3731 l0 3736 -37 -7 c-20 -4 -58 -18 -85 -31 -26
-13 -52 -24 -59 -24 -6 0 -26 -7 -44 -16 -30 -14 -34 -20 -32 -54 1 -41 -17
-86 -39 -94 -8 -3 -30 4 -49 15 -29 18 -40 19 -68 10 -50 -17 -70 -6 -64 35 5
28 2 33 -19 38 -13 4 -40 0 -60 -9 -20 -8 -47 -15 -59 -15 -12 0 -38 -6 -56
-14 -48 -20 -229 -59 -392 -85 -78 -13 -98 -21 -124 -54 -28 -36 -40 -39 -62
-16 -17 19 -26 21 -76 14 -31 -3 -82 -15 -113 -25 -68 -22 -146 -35 -187 -32
-46 3 -76 -26 -79 -77 -4 -55 -34 -88 -65 -72 -11 6 -24 26 -29 44 l-9 32 -79
-3 c-43 -2 -134 -14 -200 -28 -67 -13 -142 -24 -167 -24 -29 0 -53 -7 -68 -19
-23 -19 -23 -20 -4 -27 43 -16 46 -46 7 -70 -27 -16 -52 -62 -52 -96 0 -36
-36 -62 -96 -69 -33 -4 -75 -10 -95 -14 -33 -6 -41 -3 -76 29 -22 20 -50 36
-63 36 -35 0 -77 31 -87 64 -8 28 -13 31 -44 28 -18 -2 -61 -10 -94 -19 -33
-8 -94 -19 -135 -23 -41 -5 -165 -27 -275 -50 -110 -23 -229 -45 -265 -49 -36
-5 -99 -18 -140 -29 -108 -29 -156 -35 -382 -46 -66 -3 -94 -9 -115 -24 -33
-23 -81 -38 -146 -46 -26 -3 -80 -20 -120 -37 -40 -18 -105 -40 -146 -51 -40
-10 -108 -33 -150 -52 -42 -19 -101 -39 -131 -45 -75 -16 -136 -37 -168 -60
-73 -50 -126 -78 -405 -218 -60 -29 -139 -73 -175 -97 -37 -24 -109 -67 -161
-96 -117 -64 -270 -166 -360 -240 -64 -52 -156 -123 -244 -188 -47 -34 -105
-82 -129 -105 -24 -23 -68 -61 -98 -85 -30 -23 -66 -51 -80 -62 -14 -11 -42
-25 -64 -31 -46 -12 -78 -29 -89 -46 -4 -7 -17 -13 -28 -13 -28 0 -59 -18 -59
-34 0 -8 -7 -16 -15 -20 -20 -7 -20 23 1 53 14 19 14 29 4 67 -11 37 -10 47 3
66 26 39 89 103 152 154 33 27 62 52 65 55 3 3 25 19 50 37 25 17 70 54 100
82 30 29 93 80 140 114 46 33 108 85 137 114 29 29 73 61 99 72 54 24 150 88
215 145 25 22 73 53 105 69 32 16 100 55 149 87 50 32 114 67 142 78 71 28
161 74 214 109 24 16 100 48 169 71 69 23 172 64 230 91 58 28 132 55 165 61
32 6 82 19 110 30 28 10 84 25 125 33 41 7 116 24 165 36 50 12 126 31 170 42
44 11 95 26 113 34 43 19 349 94 382 94 14 0 68 11 120 25 52 14 148 37 215
51 66 13 192 40 280 59 88 20 205 44 260 55 152 31 365 80 415 95 25 7 74 16
110 19 63 5 140 29 140 44 0 13 -76 87 -111 107 -52 31 -51 68 5 129 43 47 46
48 88 42 24 -4 70 -10 103 -14 69 -8 208 -75 265 -126 49 -44 120 -63 174 -47
23 6 79 18 126 26 122 21 176 34 255 60 39 13 79 25 89 27 23 4 22 1 39 188
10 123 16 150 35 178 35 48 59 58 85 34 12 -10 49 -33 82 -49 47 -23 75 -30
131 -32 67 -2 72 0 78 21 10 40 7 65 -14 91 l-20 25 25 4 c19 4 25 1 25 -12 0
-13 6 -16 24 -13 29 6 40 27 26 53 -14 25 -13 43 6 106 26 91 57 104 144 58
28 -14 57 -23 66 -20 24 9 53 -10 125 -84 55 -56 68 -74 74 -111 5 -34 18 -55
55 -94 28 -29 52 -65 57 -85 8 -31 12 -35 39 -31 56 6 184 56 184 71 0 5 -9
14 -19 20 -43 22 -61 71 -59 161 1 99 27 156 65 142 11 -4 13 52 13 316 l0
321 -118 0 c-71 0 -122 -4 -129 -11 -7 -7 -39 -9 -89 -5 -44 3 -263 9 -489 12
l-410 6 28 -22 c52 -41 24 -80 -58 -80 -26 0 -39 -8 -62 -35 -22 -28 -36 -36
-65 -37 -42 -1 -68 15 -68 43 0 10 -18 37 -39 60 -23 23 -37 47 -34 55 4 12
-31 14 -221 14 l-225 0 -26 -55 c-15 -30 -33 -62 -41 -70 -14 -13 -14 -16 0
-21 10 -4 32 8 58 30 23 20 60 41 82 47 23 5 55 17 71 25 25 13 42 14 110 5
93 -13 121 -34 111 -85 -8 -39 -53 -107 -75 -113 -13 -3 -16 -13 -13 -44 5
-46 9 -47 116 -24 43 9 79 23 93 37 21 20 37 23 106 25 90 2 156 23 210 69
l31 26 33 -35 c17 -20 40 -37 50 -38 20 -3 165 8 227 18 21 3 36 1 33 -3 -3
-5 13 -9 35 -8 22 0 43 6 47 12 11 19 124 72 153 72 60 0 39 -53 -32 -79 -36
-13 -50 -27 -83 -81 -22 -36 -44 -68 -49 -71 -13 -9 -146 -1 -196 11 -27 6
-56 7 -75 2 -22 -6 -44 -5 -70 4 -21 7 -66 18 -100 24 -34 5 -79 15 -99 22
-32 9 -41 9 -55 -5 -12 -10 -48 -18 -108 -22 -81 -6 -163 -27 -220 -56 -30
-15 -52 -79 -60 -174 -2 -16 -3 -36 -4 -44 -1 -8 -7 -11 -17 -7 -8 3 -28 -4
-44 -15 -30 -23 -70 -21 -89 4 -47 57 -57 66 -67 59 -7 -4 -24 -35 -38 -69
-19 -47 -26 -80 -26 -131 0 -78 -9 -94 -64 -121 -51 -24 -84 -14 -139 45 -23
24 -47 44 -54 44 -7 0 -15 -17 -19 -37 -10 -59 -19 -65 -83 -57 -62 8 -112 26
-129 47 -7 8 -14 56 -16 106 -3 89 -3 93 20 103 17 8 34 8 61 0 45 -14 198
-11 212 3 7 7 5 26 -7 58 -17 46 -16 48 6 90 26 50 27 57 7 57 -8 0 -15 3 -15
8 0 10 -50 32 -71 32 -33 0 -29 18 6 30 23 8 69 9 139 4 98 -6 104 -6 115 14
18 34 13 61 -20 102 -19 23 -29 45 -26 54 7 18 -23 36 -95 57 -27 7 -48 17
-48 22 0 4 20 17 45 28 46 20 55 35 33 57 -9 9 -583 12 -2521 12 l-2510 0 6
-56 c3 -31 3 -62 0 -70 -7 -18 -36 -18 -72 0 -20 11 -38 12 -67 6 -70 -17 -99
-12 -126 19 -36 40 -49 67 -42 85 5 13 -3 16 -44 16 -28 0 -63 -5 -77 -12 -19
-9 -28 -9 -37 0 -15 15 -90 16 -105 1 -8 -8 -13 -8 -17 0 -8 12 -426 16 -426
4 0 -3 7 -14 15 -23 10 -11 13 -27 8 -53 -13 -81 -108 -78 -150 4 -12 24 -24
52 -27 62 -5 16 -169 17 -3356 17 -2580 0 -3350 -3 -3350 -12 0 -9 -3 -9 -12
0 -9 9 -129 12 -480 12 l-468 0 0 -648z m1184 622 c9 -3 16 -12 16 -19 0 -16
-25 -26 -45 -19 -18 7 -20 30 -2 37 6 3 13 6 14 6 1 1 8 -2 17 -5z m111 -23
c3 -5 1 -12 -5 -16 -5 -3 -10 1 -10 9 0 18 6 21 15 7z m6963 -18 c2 -12 -4
-23 -13 -27 -32 -12 -48 17 -23 42 17 17 32 10 36 -15z m-6918 -3 c0 -5 -2
-10 -4 -10 -3 0 -8 5 -11 10 -3 6 -1 10 4 10 6 0 11 -4 11 -10z m5620 -19 c25
-36 11 -50 -25 -27 -27 18 -34 56 -11 56 8 0 24 -13 36 -29z m-5480 -39 c19
-6 88 -27 153 -48 87 -27 117 -40 117 -52 0 -14 2 -14 9 -3 6 9 11 10 15 2 4
-6 20 -11 36 -11 16 0 32 -4 35 -10 3 -5 26 -10 49 -10 29 0 52 -7 71 -22 19
-15 43 -22 84 -23 70 -2 162 -29 320 -93 133 -55 168 -79 173 -121 2 -14 8
-26 13 -26 28 -2 85 -17 85 -23 0 -22 87 -52 207 -72 56 -9 163 -55 163 -70 0
-4 16 -14 35 -20 30 -10 42 -9 71 5 33 16 39 16 87 0 75 -25 148 -63 184 -97
19 -18 38 -28 47 -25 8 3 54 -13 103 -37 48 -24 142 -62 208 -85 130 -46 187
-72 223 -104 12 -12 30 -22 40 -23 9 -2 49 -18 87 -37 82 -40 132 -57 167 -57
14 0 31 -7 38 -15 7 -8 27 -15 45 -15 20 0 42 -9 59 -25 20 -18 37 -25 61 -23
20 1 53 -9 85 -25 37 -19 67 -27 104 -27 55 0 111 -14 184 -46 48 -21 54 -51
15 -69 -25 -10 -31 -39 -11 -51 6 -4 59 -7 116 -6 74 1 113 -3 133 -13 15 -8
38 -15 51 -15 22 0 54 -11 198 -66 36 -14 82 -30 102 -35 20 -5 56 -20 80 -33
24 -13 61 -27 83 -31 22 -3 60 -15 85 -26 25 -10 86 -27 137 -38 108 -23 182
-53 214 -87 12 -13 28 -24 36 -24 7 0 13 -4 13 -10 0 -5 11 -20 24 -33 56 -56
53 -147 -5 -147 -41 0 -57 9 -80 46 -19 32 -24 34 -72 34 -56 0 -141 37 -198
85 -19 15 -43 25 -63 25 -37 0 -142 32 -198 61 -44 22 -58 45 -58 91 0 19 -5
39 -12 46 -14 14 -48 16 -48 4 0 -5 -10 -18 -21 -31 -18 -19 -28 -22 -58 -16
-21 4 -45 17 -57 32 -14 17 -27 24 -37 20 -11 -4 -21 1 -28 14 -9 18 -17 19
-63 14 -46 -6 -60 -3 -99 19 -26 14 -55 34 -65 44 -12 12 -42 23 -73 27 -30 4
-76 16 -104 26 -27 11 -59 19 -70 19 -11 0 -39 9 -62 20 -31 13 -44 26 -49 47
-4 15 -14 36 -22 46 -17 19 -62 23 -79 6 -8 -8 -17 -2 -34 20 -22 30 -52 40
-64 21 -11 -18 -33 2 -50 47 -15 39 -20 44 -39 38 -39 -13 -91 -12 -126 4 -19
8 -56 15 -82 16 -26 1 -54 7 -62 14 -8 7 -34 13 -58 15 -24 2 -53 4 -64 4 -12
1 -45 18 -74 38 -29 20 -75 47 -102 61 -28 14 -58 33 -68 43 -13 13 -42 20
-101 25 -216 19 -350 60 -424 132 -33 32 -180 105 -247 123 -23 7 -47 19 -53
27 -15 20 -81 43 -127 43 -20 0 -40 5 -43 10 -3 6 -23 10 -44 10 -24 0 -52 9
-74 24 -28 19 -44 24 -71 19 -24 -4 -48 1 -78 15 -38 18 -122 54 -245 107 -23
9 -59 37 -80 61 -23 27 -46 44 -60 44 -12 0 -23 4 -25 9 -3 11 -156 69 -202
78 -16 3 -37 14 -47 24 -11 11 -27 19 -38 19 -10 0 -32 7 -47 15 -16 8 -44 18
-62 21 -19 4 -45 18 -58 31 -17 17 -32 23 -47 19 -23 -6 -107 27 -107 43 0 15
31 43 44 38 6 -2 27 -9 46 -15z m5829 -1 c9 -6 22 -6 33 0 15 8 25 4 48 -20
17 -16 28 -35 25 -43 -9 -21 -114 -87 -151 -94 -57 -11 -84 2 -84 38 0 52 59
128 100 128 8 0 22 -4 29 -9z m5649 -30 c18 -11 12 -41 -10 -54 -22 -14 -48 7
-48 39 0 18 5 24 23 24 12 0 28 -4 35 -9z m747 -31 c15 -16 17 -26 9 -46 -7
-20 -27 -34 -89 -60 -44 -18 -85 -33 -91 -34 -12 0 -84 87 -84 102 0 16 73 42
135 48 98 11 101 11 120 -10z m-4859 -46 c16 -39 21 -150 24 -599 2 -253 -2
-305 -25 -305 -7 0 -18 -7 -25 -15 -14 -17 -46 -20 -55 -5 -3 5 9 16 27 24
l33 14 -41 1 c-48 1 -78 23 -98 72 -21 51 -80 109 -110 109 -19 0 -26 6 -30
28 -7 37 -1 290 7 299 4 3 7 -2 8 -13 0 -15 2 -14 10 6 l10 25 18 -24 c10 -13
23 -21 29 -17 15 9 -13 95 -42 126 -55 59 -55 82 3 143 38 41 104 76 161 86
28 5 36 12 38 31 3 21 26 50 39 50 2 0 11 -16 19 -36z m7089 -66 c9 -14 11
-24 5 -26 -14 -5 -40 17 -40 34 0 21 17 17 35 -8z m-2537 -55 c2 -7 -4 -16
-12 -19 -19 -7 -49 14 -40 28 8 13 46 6 52 -9z m-10 -209 c12 -8 26 -24 32
-34 15 -29 -20 -60 -67 -60 -72 0 -134 71 -85 99 26 16 95 13 120 -5z m1172
-34 c0 -22 -4 -40 -10 -40 -5 0 -10 -5 -10 -12 0 -16 38 -96 63 -131 12 -18
17 -36 13 -52 -10 -41 -57 -34 -111 16 -38 36 -45 47 -45 80 0 31 -4 39 -19
39 -10 0 -24 6 -30 13 -8 11 -6 19 12 35 12 12 38 37 57 56 19 19 45 34 58 35
19 1 22 -4 22 -39z m-6665 -170 c3 -5 -1 -10 -10 -10 -9 0 -13 5 -10 10 3 6 8
10 10 10 2 0 7 -4 10 -10z m1496 -81 c17 -25 22 -44 21 -86 -2 -61 -19 -103
-63 -151 -24 -27 -36 -33 -55 -28 -38 10 -67 44 -59 69 3 12 12 47 19 77 18
74 31 105 56 130 29 29 55 25 81 -11z m4800 -64 c93 -8 220 -36 213 -47 -3 -4
3 -8 13 -8 10 0 30 -12 45 -27 52 -56 88 -86 95 -80 4 4 13 -11 21 -34 8 -26
10 -45 4 -51 -10 -10 -140 -31 -185 -30 -36 2 -84 40 -92 74 -8 33 -22 43 -56
40 -18 -2 -41 9 -75 36 -27 21 -59 44 -71 50 -39 21 -37 103 3 88 6 -2 45 -7
85 -11z m-865 -21 c28 -14 32 -19 24 -35 -6 -10 -23 -22 -38 -25 -15 -4 -40
-14 -57 -22 -42 -21 -75 -24 -75 -6 0 22 50 92 68 97 31 9 44 7 78 -9z m-466
-359 c19 -14 43 -25 54 -25 33 0 86 -37 86 -60 0 -11 -4 -20 -9 -20 -5 0 -12
-8 -15 -17 -5 -15 -18 -18 -75 -18 -88 1 -121 17 -121 59 0 17 -3 40 -6 52 -6
22 18 54 40 54 7 0 27 -11 46 -25z m2280 -200 c10 -12 10 -15 -4 -15 -9 0 -16
7 -16 15 0 8 2 15 4 15 2 0 9 -7 16 -15z m353 -22 c4 -2 7 -15 7 -28 0 -37
-44 -65 -101 -65 -48 0 -49 -1 -84 -55 -38 -60 -38 -60 -66 -45 -28 15 -24 56
7 77 26 18 33 24 99 97 34 37 37 38 83 31 26 -4 50 -9 55 -12z m-844 -77 c17
-20 2 -46 -26 -46 -26 0 -83 29 -83 41 0 19 94 23 109 5z m-13350 -139 c13
-15 25 -46 31 -81 5 -32 12 -66 15 -77 17 -51 -54 -81 -93 -39 -21 23 -52 114
-52 154 0 66 55 89 99 43z m13758 -52 c23 -21 54 -36 131 -66 29 -11 28 -42
-3 -74 -31 -30 -39 -31 -123 -4 -149 48 -169 67 -127 117 14 17 25 34 25 40 0
30 60 22 97 -13z m-893 -117 l39 -32 -23 -18 c-30 -24 -46 -23 -65 6 -15 23
-12 76 4 76 3 0 24 -14 45 -32z m-7915 -14 c13 -3 34 -13 47 -22 20 -14 24
-23 19 -52 -2 -19 -5 -48 -5 -65 0 -50 -12 -59 -55 -45 -65 22 -77 59 -65 199
0 2 8 0 18 -4 9 -4 28 -9 41 -11z m7366 -185 c0 -18 -6 -25 -24 -27 -13 -2
-27 0 -32 5 -13 13 -1 41 19 46 28 7 37 2 37 -24z m-321 -14 c39 -19 70 -68
63 -102 -3 -18 4 -35 25 -59 25 -29 37 -34 73 -34 23 0 56 -5 74 -11 38 -13
81 -4 81 17 0 26 56 75 77 68 31 -11 43 -36 43 -85 0 -47 1 -49 43 -68 23 -11
67 -44 99 -74 l56 -54 -11 -41 c-10 -39 -9 -44 21 -86 36 -50 37 -58 21 -171
-16 -106 -23 -114 -92 -92 -49 15 -75 32 -189 119 -45 35 -58 35 -108 2 -32
-21 -48 -25 -76 -21 -47 8 -104 52 -104 80 0 12 -9 40 -21 61 -11 21 -24 57
-27 80 -9 50 -36 58 -78 23 -59 -49 -68 -50 -133 -18 l-59 30 3 58 c2 32 4
102 4 155 l1 97 44 20 c65 28 88 54 76 86 -6 15 -10 28 -10 31 0 10 75 3 104
-11z m-6044 -405 c0 -15 -7 -20 -25 -20 -41 0 -30 37 13 39 6 1 12 -8 12 -19z
m434 -64 c9 -31 7 -43 -4 -26 -6 10 -13 11 -19 5 -6 -6 -7 -15 -3 -21 9 -15
130 -25 134 -12 2 6 18 6 45 -1 22 -6 48 -8 57 -5 9 3 23 1 31 -6 7 -6 22 -10
33 -8 18 3 92 -62 92 -81 0 -5 -15 -16 -33 -25 -31 -14 -38 -14 -86 4 -29 10
-58 24 -65 29 -8 7 -24 7 -45 1 -19 -5 -42 -5 -59 1 -15 5 -38 8 -52 7 -64 -4
-87 2 -98 27 -9 20 -9 30 0 45 10 16 10 24 0 40 -25 41 -12 59 39 52 17 -3 29
-12 33 -26z m-277 -6 c12 -14 23 -28 23 -32 0 -4 5 -19 12 -35 15 -37 19 -93
7 -93 -5 0 -9 4 -9 10 0 14 -79 -43 -80 -57 0 -20 -37 -15 -52 5 -7 11 -45 36
-85 58 -66 35 -72 41 -66 63 22 88 195 143 250 81z m93 -60 c0 -16 -4 -30 -10
-30 -11 0 -14 43 -3 53 11 12 13 8 13 -23z m-148 -242 c16 -18 31 -41 34 -50
3 -10 11 -18 19 -18 25 0 97 -45 105 -65 13 -34 44 -55 106 -71 32 -8 60 -19
62 -23 4 -12 139 -2 195 14 27 8 65 28 84 46 28 24 41 29 62 24 14 -4 57 -6
95 -5 l68 2 -18 -31 c-10 -17 -26 -34 -36 -37 -30 -9 -21 -26 11 -19 17 3 32
2 36 -4 3 -6 14 -11 24 -11 9 0 32 -15 50 -34 29 -30 33 -39 27 -70 -4 -20
-11 -36 -16 -36 -6 0 -10 -5 -10 -11 0 -48 -121 -189 -161 -189 -12 0 -24 -11
-30 -27 -6 -16 -15 -36 -20 -46 -7 -13 -5 -19 6 -23 22 -9 19 -19 -12 -35 -35
-18 -63 -41 -63 -52 0 -9 -55 -67 -64 -67 -2 0 -20 -14 -38 -30 -38 -35 -52
-34 -56 3 -2 19 -9 27 -23 27 -27 0 -25 -1 -70 15 -34 12 -48 13 -76 3 -26 -9
-36 -9 -45 0 -18 18 -48 15 -49 -5 -3 -41 -5 -46 -18 -51 -10 -3 -11 2 -6 19
7 23 6 23 -7 5 -14 -17 -24 -18 -107 -12 -65 5 -103 3 -127 -6 -30 -10 -36
-10 -51 5 -11 10 -14 20 -8 26 21 18 111 41 164 41 38 0 51 3 41 9 -10 7 -2
13 33 22 57 14 87 48 87 96 l0 34 -42 -6 c-27 -4 -62 0 -92 9 -40 12 -64 13
-123 5 l-73 -10 -55 47 c-30 26 -55 53 -55 58 -1 6 -9 1 -20 -12 -16 -19 -23
-21 -40 -12 -19 10 -20 8 -20 -28 0 -34 -26 -132 -35 -132 -14 0 -35 14 -35
24 0 6 -17 21 -38 34 -37 24 -72 77 -72 112 0 10 -4 22 -10 25 -5 3 -10 14
-10 25 0 17 -51 122 -72 147 -5 7 -11 44 -12 83 -1 55 2 74 15 86 12 11 19 12
24 4 5 -8 15 -6 33 6 21 14 39 15 102 10 44 -3 111 -1 154 5 100 15 108 8 73
-63 -24 -52 -57 -167 -57 -202 0 -15 3 -16 15 -6 8 7 15 18 15 24 0 6 18 27
40 46 37 32 40 38 40 87 0 50 4 64 38 142 8 19 17 51 19 72 5 34 43 89 62 89
3 0 18 -15 33 -32z m1533 -112 c4 -24 1 -76 -7 -117 -7 -41 -14 -163 -16 -274
-1 -110 -3 -218 -4 -241 l-1 -40 -62 -18 c-43 -12 -76 -16 -107 -11 -32 5 -64
1 -115 -14 -39 -12 -83 -21 -98 -21 l-27 0 5 78 c5 81 21 163 36 197 5 11 12
33 16 48 6 30 9 32 70 43 l40 7 -42 9 c-68 15 -94 77 -41 97 31 12 62 47 53
61 -9 14 72 90 96 90 10 0 19 -6 22 -12 4 -10 8 -10 23 0 11 7 31 17 46 23 18
7 31 22 38 47 23 75 33 92 51 92 13 0 19 -11 24 -44z m6500 9 c38 -38 31 -60
-32 -103 -40 -28 -78 -28 -97 0 -24 34 -20 52 20 92 43 43 75 46 109 11z
m-2230 -451 c18 -39 18 -40 -44 -106 -42 -45 -68 -48 -113 -11 -47 39 -57 54
-58 84 0 39 22 53 76 45 37 -5 51 -2 71 13 31 25 47 19 68 -25z m-5895 -411
c74 -3 169 0 210 5 47 7 78 8 84 2 6 -6 24 -10 41 -10 17 0 36 -5 42 -11 5 -5
25 -18 44 -27 26 -13 33 -23 31 -41 -3 -32 -4 -33 -56 -38 -63 -7 -96 2 -96
28 0 22 -7 23 -80 3 l-25 -7 25 21 c29 25 14 28 -36 7 -20 -8 -33 -19 -29 -25
7 -12 -16 -14 -100 -10 -95 4 -225 70 -225 115 0 4 8 4 18 0 9 -4 78 -9 152
-12z m1333 -249 c7 -8 -26 -76 -58 -119 -13 -16 -21 -38 -20 -48 2 -9 -4 -24
-12 -33 -9 -9 -28 -33 -42 -54 -14 -21 -52 -65 -83 -98 -32 -33 -58 -65 -58
-71 0 -6 -4 -11 -8 -11 -4 0 -15 -13 -24 -28 -10 -16 -37 -48 -62 -72 -25 -24
-51 -57 -58 -74 -7 -17 -19 -38 -28 -47 -8 -9 -26 -32 -40 -50 -14 -18 -43
-56 -65 -84 -22 -27 -53 -68 -70 -90 -16 -22 -35 -46 -42 -53 -7 -7 -13 -18
-13 -23 0 -5 -12 -15 -27 -21 -16 -7 -40 -23 -55 -36 l-26 -24 -56 54 c-31 30
-56 60 -56 66 0 22 60 39 148 41 23 0 42 5 42 11 0 5 -17 21 -37 35 -24 16
-31 25 -20 25 9 0 20 0 25 0 12 1 72 63 72 76 0 6 13 17 29 24 28 11 28 13 15
38 -8 15 -14 35 -14 45 0 10 -5 27 -11 38 -8 16 -7 29 5 54 9 18 16 40 16 50
0 16 45 79 90 126 46 47 106 123 142 180 60 94 98 131 126 124 15 -4 28 -1 36
9 13 18 44 22 71 11 24 -11 54 -45 55 -62 0 -17 19 -16 26 0 4 12 9 43 13 85
1 12 62 17 74 6z m-913 -34 c0 -15 -7 -20 -25 -20 -14 0 -37 -11 -51 -25 -25
-25 -74 -34 -74 -14 0 5 -4 8 -9 5 -5 -3 -15 1 -22 10 -11 14 -10 18 6 30 10
8 28 14 39 14 12 0 28 5 36 10 8 5 34 10 58 10 35 0 42 -3 42 -20z m1113 -187
c-7 -2 -13 -11 -13 -19 0 -9 5 -12 10 -9 6 4 10 -12 10 -41 0 -26 -3 -44 -7
-41 -12 13 -34 -32 -25 -50 29 -57 25 -71 -36 -133 -32 -33 -66 -60 -75 -60
-9 0 -22 -9 -30 -20 -8 -11 -17 -17 -20 -13 -4 3 -7 -1 -7 -10 0 -9 -4 -19
-10 -22 -6 -4 -7 1 -4 12 5 15 4 15 -8 -2 -14 -18 -27 -59 -30 -92 -1 -7 -6
-13 -12 -13 -6 0 -5 -4 3 -9 12 -8 13 -14 3 -36 -17 -36 -15 -137 2 -160 8
-12 12 -32 9 -51 -5 -31 -4 -32 31 -30 23 1 35 -3 32 -10 -2 -6 2 -11 10 -11
9 0 14 11 14 29 0 35 34 40 44 6 9 -34 5 -57 -4 -28 -7 21 -8 18 -11 -20 -1
-25 -3 -50 -3 -57 -2 -19 -37 -41 -58 -35 -20 5 -18 16 -22 -203 l-1 -100 65
-22 c36 -13 72 -23 81 -23 9 0 30 -7 45 -15 16 -8 36 -15 45 -15 9 0 27 -8 40
-17 13 -10 50 -31 83 -48 34 -18 73 -48 95 -74 107 -131 190 -186 249 -165 26
9 27 11 27 95 1 79 4 91 40 164 53 104 61 108 118 59 50 -43 56 -58 82 -204
10 -52 26 -117 36 -143 11 -26 19 -61 19 -77 0 -45 -106 -303 -146 -357 -25
-33 -26 -53 -3 -114 6 -14 40 -48 77 -74 37 -27 84 -64 105 -82 20 -18 45 -33
54 -33 9 0 13 -3 10 -7 -4 -3 -3 -11 2 -17 27 -35 32 -86 16 -163 -10 -43 -23
-88 -31 -100 -8 -12 -14 -32 -14 -43 0 -11 -18 -47 -41 -80 -28 -41 -39 -67
-36 -81 8 -29 -31 -66 -76 -74 -38 -7 -131 17 -143 37 -4 6 -7 25 -8 41 -1 29
-4 31 -66 47 -37 9 -95 35 -135 59 -127 79 -124 78 -135 61 -7 -11 -4 -17 9
-22 36 -13 34 -28 -3 -28 -27 0 -42 7 -62 30 -15 16 -43 35 -63 41 -87 29
-166 88 -270 203 -52 57 -56 71 -23 71 11 0 16 7 14 20 -2 11 -7 22 -11 25 -3
3 -19 25 -36 49 -16 24 -36 46 -45 49 -8 3 -30 18 -48 34 -18 15 -45 31 -60
34 -15 4 -44 15 -64 26 -32 16 -38 23 -38 52 0 25 -6 36 -25 46 -14 7 -28 11
-31 7 -13 -12 -44 14 -44 37 0 59 74 74 164 33 32 -15 62 -25 66 -22 16 10 18
46 3 60 -11 12 -12 15 -1 16 9 0 9 2 -2 7 -28 13 -97 76 -117 108 -12 18 -13
18 -38 -9 -28 -31 -45 -28 -45 8 0 15 11 32 31 46 31 22 32 22 118 5 104 -20
131 -20 156 -2 29 19 89 28 118 17 22 -9 25 -8 20 7 -11 30 -27 45 -71 64 -37
17 -44 17 -63 4 -19 -13 -24 -12 -52 4 -18 11 -71 24 -121 30 -49 6 -93 13
-97 15 -4 3 -10 16 -13 31 -8 29 23 88 55 105 19 10 19 19 14 177 -4 92 -8
259 -9 372 -3 150 -8 221 -19 264 -9 32 -14 63 -10 69 4 6 1 7 -7 2 -10 -6
-12 0 -8 24 4 30 3 31 -34 31 -31 0 -38 3 -38 20 0 11 4 20 9 20 5 0 23 11 39
25 24 20 30 35 34 77 3 29 2 66 -3 82 -7 23 -5 32 6 39 8 4 15 13 15 20 0 7
13 28 29 47 15 19 31 49 35 67 9 41 29 57 61 49 37 -9 46 -36 36 -108 -9 -71
-6 -89 15 -81 27 10 134 124 128 136 -3 7 1 4 9 -5 14 -18 67 -25 67 -10 0 5
-11 14 -25 20 -36 16 -31 35 20 86 25 25 45 50 45 55 0 10 18 19 35 19 6 0 4
-2 -2 -5z m-1746 -423 c35 -21 68 -76 78 -130 3 -19 10 -82 15 -140 12 -135
19 -180 32 -207 6 -12 8 -32 5 -44 -6 -24 18 -223 35 -284 6 -22 10 -55 9 -72
-1 -18 2 -33 8 -33 7 0 10 -20 8 -52 -2 -29 4 -89 14 -133 10 -44 21 -118 25
-165 3 -49 14 -101 25 -125 11 -23 20 -69 22 -111 2 -39 7 -76 11 -83 4 -6 3
-18 -4 -26 -9 -11 -7 -18 7 -32 14 -14 17 -27 12 -63 -4 -25 -2 -51 3 -58 6
-6 8 -27 4 -45 -4 -21 -3 -27 3 -18 7 10 10 1 10 -30 1 -64 9 -140 15 -147 4
-3 6 2 6 11 0 9 4 17 8 17 5 0 7 -36 4 -80 -3 -57 -1 -80 7 -80 8 0 9 -5 4
-15 -12 -20 -4 -102 8 -84 6 10 9 2 9 -23 0 -20 4 -38 9 -40 6 -2 6 -21 2 -45
-5 -24 -5 -43 -1 -43 12 0 23 -42 22 -88 -1 -25 3 -40 8 -37 10 6 11 4 15 -85
2 -58 35 -194 57 -232 6 -13 13 -31 15 -42 2 -10 19 -51 38 -91 30 -64 37 -72
58 -68 31 6 52 -19 38 -46 -6 -10 -8 -32 -5 -48 7 -36 0 -42 -94 -73 -66 -21
-78 -22 -120 -11 -75 20 -88 44 -67 123 5 21 -1 42 -25 90 -34 64 -77 213
-104 353 -8 44 -22 109 -30 145 -8 36 -31 164 -51 285 -20 121 -43 258 -51
305 -25 141 -35 211 -40 285 -2 39 -8 118 -14 176 -6 58 -10 171 -9 250 0 79
-4 173 -10 209 -18 105 -29 568 -16 647 9 53 -14 156 -55 246 -16 36 -30 76
-30 87 0 26 34 27 77 0z m1538 -60 c-3 -5 -10 -10 -16 -10 -5 0 -9 5 -9 10 0
6 7 10 16 10 8 0 12 -4 9 -10z m1615 -20 c0 -5 -4 -10 -10 -10 -5 0 -10 5 -10
10 0 6 5 10 10 10 6 0 10 -4 10 -10z m-51 -26 c-12 -15 -11 -16 9 -10 16 6 22
3 22 -8 0 -19 -2 -19 -35 -4 -24 11 -24 12 -8 30 20 22 31 15 12 -8z m242
-200 l-9 -39 -1 36 c-1 20 2 39 6 42 12 13 13 0 4 -39z m348 14 c20 -17 44
-42 53 -54 18 -22 17 -22 -5 -18 -13 3 -9 -1 11 -10 37 -17 45 -41 10 -30 -28
8 -48 34 -41 51 6 16 -27 6 -40 -11 -4 -6 -6 0 -5 14 2 19 -2 25 -17 25 -28 0
-30 -29 -6 -64 12 -16 21 -36 21 -45 0 -9 7 -16 15 -16 8 0 15 -5 15 -10 0
-13 61 -51 71 -45 4 3 6 -3 5 -12 -1 -15 62 -68 71 -59 9 8 -22 45 -41 50 -11
3 -17 8 -13 12 4 4 3 12 -2 18 -6 7 -4 21 4 36 8 14 14 19 15 12 0 -8 14 -27
30 -44 17 -16 30 -36 30 -44 0 -8 4 -14 9 -14 5 0 13 -10 17 -22 4 -13 10 -25
13 -28 4 -3 15 -21 25 -40 9 -19 32 -62 50 -95 88 -159 106 -195 95 -195 -6 0
3 -16 21 -36 17 -20 28 -39 25 -42 -4 -4 -11 1 -16 11 -14 23 -33 22 -26 -3
10 -38 -27 -18 -42 23 -6 15 -15 27 -21 27 -6 0 -8 -4 -5 -10 3 -5 0 -7 -9 -4
-11 4 -14 15 -10 37 2 18 1 25 -2 17 -4 -8 -11 -18 -17 -21 -5 -4 -6 -13 -1
-20 5 -8 9 -30 10 -49 0 -19 -1 -29 -3 -22 -3 6 -11 12 -18 12 -13 0 -95 88
-95 103 0 5 -7 15 -16 24 -8 9 -13 22 -10 29 11 30 -54 169 -86 182 -4 2 -8
11 -8 21 0 18 -28 58 -72 103 -16 15 -28 34 -28 43 0 23 -36 99 -54 114 -10 9
-20 9 -34 2 -16 -8 -18 -21 -18 -81 1 -59 -1 -69 -14 -64 -31 12 -50 12 -51 1
-8 -80 -49 -111 -49 -37 0 33 3 40 20 40 14 0 21 9 26 38 7 42 35 130 47 150
5 6 17 12 27 12 11 0 31 11 45 24 44 40 50 45 54 46 2 0 20 -14 40 -32z
m-2402 -240 c-3 -7 -5 -2 -5 12 0 14 2 19 5 13 2 -7 2 -19 0 -25z m-149 0 c21
-2 13 -17 -12 -24 -30 -7 -75 14 -56 26 7 5 23 6 34 3 12 -2 27 -5 34 -5z
m434 -23 c-2 -14 -6 -25 -8 -25 -2 0 -4 11 -4 25 0 14 4 25 9 25 4 0 6 -11 3
-25z m1998 -112 c0 -12 5 -23 11 -25 6 -2 9 -22 7 -45 -5 -67 -25 -38 -32 47
-5 53 -4 71 3 60 6 -8 11 -25 11 -37z m-180 7 c0 -5 -5 -10 -11 -10 -5 0 -7 5
-4 10 3 6 8 10 11 10 2 0 4 -4 4 -10z m1670 -145 c16 -20 19 -87 4 -92 -7 -2
-22 10 -34 27 -35 49 -7 110 30 65z m-925 -246 c0 -8 4 -20 8 -26 5 -9 3 -13
-7 -13 -9 0 -16 3 -16 8 0 4 -3 18 -7 31 -4 18 -2 22 8 19 8 -3 14 -11 14 -19z
m-35 -21 c0 -16 -3 -19 -11 -11 -6 6 -8 16 -5 22 11 17 16 13 16 -11z m89 -63
c13 -22 15 -31 6 -20 -9 11 -23 19 -31 17 -8 -2 -14 1 -14 7 0 11 12 43 14 39
2 -2 13 -21 25 -43z m-14 -25 c3 -5 1 -10 -4 -10 -6 0 -11 5 -11 10 0 6 2 10
4 10 3 0 8 -4 11 -10z m75 -115 c-7 -9 -15 -13 -17 -11 -7 7 7 26 19 26 6 0 6
-6 -2 -15z m119 -204 c-3 -6 -10 -7 -18 -2 -7 5 -10 14 -6 21 9 14 29 -2 24
-19z m111 -218 c0 -4 11 -29 25 -55 14 -26 22 -54 19 -62 -4 -9 0 -18 10 -22
16 -6 76 -121 76 -146 0 -8 4 -18 8 -24 5 -5 19 -38 31 -74 13 -36 29 -77 38
-93 18 -33 74 -197 67 -197 -2 0 2 -13 11 -29 14 -29 72 -227 82 -286 3 -16 9
-35 14 -40 9 -13 69 -197 69 -215 0 -7 8 -19 18 -26 9 -7 12 -14 7 -14 -12 0
-102 85 -165 156 -25 28 -53 53 -62 57 -10 3 -18 13 -18 22 0 8 -6 15 -12 15
-16 1 -68 46 -68 59 0 14 -45 61 -58 61 -6 0 -25 13 -42 30 -17 17 -51 35 -76
41 -44 11 -94 51 -94 75 0 6 15 11 34 12 27 1 35 -3 39 -20 4 -13 11 -19 21
-15 10 4 16 -2 20 -21 2 -15 2 8 -1 50 l-5 77 44 4 c24 2 -12 4 -79 5 l-123 2
0 40 c0 31 -4 40 -17 40 -14 0 -14 3 -5 12 10 10 15 10 21 0 6 -11 38 -13 135
-10 69 1 122 2 116 0 -5 -2 -10 -10 -10 -18 0 -23 109 -15 121 9 12 22 4 37
-22 37 -13 0 -19 7 -19 24 0 13 6 27 13 30 10 5 10 7 0 12 -7 3 -13 12 -13 20
0 7 -9 19 -20 26 -14 9 -20 24 -20 49 0 51 -38 192 -54 205 -8 5 -18 23 -22
40 -4 16 -14 39 -21 51 -8 12 -12 27 -8 33 4 6 3 16 -2 23 -5 7 -15 31 -22 55
-7 24 -18 46 -26 48 -8 3 -17 21 -21 40 -3 18 -12 38 -20 45 -8 6 -14 25 -14
42 0 26 9 12 50 -70 28 -56 50 -105 50 -110z m-4178 145 c-7 -7 -12 -8 -12 -2
0 14 12 26 19 19 2 -3 -1 -11 -7 -17z m3948 -302 c0 -3 -4 -8 -10 -11 -5 -3
-10 -1 -10 4 0 6 5 11 10 11 6 0 10 -2 10 -4z m-2862 -37 c9 -17 27 -47 40
-67 19 -29 24 -52 28 -136 8 -172 6 -293 -7 -338 -6 -24 -11 -58 -11 -76 1
-19 -12 -97 -28 -173 -32 -149 -37 -220 -19 -266 15 -37 12 -92 -7 -120 -17
-27 -47 -29 -98 -8 -34 15 -36 18 -36 63 0 26 7 56 15 66 9 12 15 41 15 71 0
28 6 75 14 105 47 182 54 277 55 768 1 149 8 168 39 111z m2682 -9 c0 -5 -4
-10 -10 -10 -5 0 -10 5 -10 10 0 6 5 10 10 10 6 0 10 -4 10 -10z m208 -31 c28
-27 38 -46 35 -60 -3 -10 -1 -19 5 -19 6 0 14 -9 17 -20 4 -13 15 -20 31 -20
17 0 24 -6 24 -18 0 -15 -7 -19 -37 -17 -30 2 -39 7 -46 29 -8 25 -12 26 -83
26 -77 0 -79 1 -77 48 1 7 -5 11 -12 8 -16 -6 -24 23 -18 58 5 24 9 26 63 26
55 0 61 -2 98 -41z m-268 -209 c0 -5 -5 -10 -11 -10 -5 0 -7 5 -4 10 3 6 8 10
11 10 2 0 4 -4 4 -10z m2520 -46 c14 -36 12 -70 -5 -105 -34 -65 -81 23 -51
95 18 42 42 47 56 10z m-3144 -103 c-10 -15 -37 -14 -33 2 3 18 20 28 31 17 4
-4 5 -13 2 -19z m-2969 -33 c-3 -7 -5 -2 -5 12 0 14 2 19 5 13 2 -7 2 -19 0
-25z m3176 -13 c19 -4 18 -4 110 -63 38 -24 67 -46 64 -48 -5 -6 -135 55 -143
67 -3 5 -11 9 -19 9 -8 0 -27 12 -42 27 -22 20 -23 25 -8 19 11 -4 28 -9 38
-11z m552 -26 c10 -15 2 -19 -23 -12 -12 3 -19 9 -16 14 7 12 31 11 39 -2z
m4136 -2 c-1 -4 -1 -14 -1 -22 0 -8 -4 -15 -10 -15 -5 0 -10 12 -10 26 0 14 5
24 11 22 6 -2 10 -7 10 -11z m-7816 -137 c3 -5 1 -10 -4 -10 -6 0 -11 5 -11
10 0 6 2 10 4 10 3 0 8 -4 11 -10z m7512 -437 c16 -15 32 -36 36 -45 3 -10 11
-18 17 -18 22 0 10 -38 -14 -42 -28 -6 -86 16 -86 32 0 6 -12 15 -26 20 -23 9
-26 15 -20 40 12 64 35 67 93 13z m-969 -32 c-2 -18 -10 -27 -26 -29 -35 -5
-53 14 -40 43 20 45 72 34 66 -14z m443 -146 c25 -13 28 -19 19 -35 -17 -32
-55 -51 -94 -48 -36 2 -38 4 -40 55 -1 10 12 21 34 29 46 16 46 16 81 -1z
m-11153 -175 c18 -17 21 -28 17 -62 -3 -23 -10 -47 -15 -53 -5 -6 -18 -49 -29
-94 -23 -99 -36 -116 -83 -107 -43 8 -77 43 -118 121 -28 53 -31 67 -26 115 7
72 28 91 94 83 26 -3 63 0 82 5 50 15 54 14 78 -8z m1592 -392 c0 -25 -3 -29
-10 -18 -13 20 -13 50 0 50 6 0 10 -15 10 -32z m7735 -250 c22 0 69 2 105 4
48 2 77 -2 108 -16 41 -19 42 -19 21 -34 -22 -15 -62 -17 -249 -9 -147 6 -262
37 -194 52 16 4 34 9 39 11 6 2 37 1 70 -3 33 -4 78 -6 100 -5z m3015 -234
c20 -23 1 -64 -40 -85 -35 -18 -36 -18 -90 4 -90 36 -94 43 -60 77 17 17 33
20 99 20 59 0 82 -4 91 -16z m-10810 -249 c0 -8 -2 -15 -4 -15 -2 0 -6 7 -10
15 -3 8 -1 15 4 15 6 0 10 -7 10 -15z m4479 -191 c2 -2 -25 -4 -60 -4 -39 0
-59 4 -51 9 13 8 101 3 111 -5z m-1716 -11 c-13 -2 -33 -2 -45 0 -13 2 -3 4
22 4 25 0 35 -2 23 -4z m100 0 c-13 -2 -33 -2 -45 0 -13 2 -3 4 22 4 25 0 35
-2 23 -4z m810 0 c-7 -2 -19 -2 -25 0 -7 3 -2 5 12 5 14 0 19 -2 13 -5z m290
0 c-13 -2 -35 -2 -50 0 -16 2 -5 4 22 4 28 0 40 -2 28 -4z m64 1 c-3 -3 -12
-4 -19 -1 -8 3 -5 6 6 6 11 1 17 -2 13 -5z m548 -76 c-19 -11 -30 -5 -21 11 4
6 14 7 22 4 15 -5 14 -7 -1 -15z m-548 6 c-3 -3 -12 -4 -19 -1 -8 3 -5 6 6 6
11 1 17 -2 13 -5z m456 -9 c-3 -9 -8 -14 -10 -11 -3 3 -2 9 2 15 9 16 15 13 8
-4z m-723 -5 c0 -5 -18 -10 -40 -10 -22 0 -40 5 -40 10 0 6 18 10 40 10 22 0
40 -4 40 -10z m5222 -17 c24 -26 68 -117 83 -171 4 -12 21 -42 39 -65 53 -70
54 -92 5 -138 -23 -21 -52 -39 -64 -39 -38 0 -85 12 -85 22 0 5 -7 16 -15 24
-24 24 -29 63 -16 115 15 57 6 131 -20 175 -48 79 12 141 73 77z m-1227 -14
c51 -14 67 -33 53 -64 -6 -13 -19 -25 -29 -28 -21 -6 -106 36 -129 63 -8 9
-24 22 -35 28 -16 9 -9 11 40 12 33 0 78 -5 100 -11z m-10345 -269 c0 -5 -5
-10 -11 -10 -8 0 -7 -5 2 -16 10 -13 10 -17 -2 -25 -8 -5 -24 -9 -36 -9 -50 0
-17 64 35 69 6 0 12 -3 12 -9z m13358 -34 c7 -36 -62 -64 -75 -31 -8 21 26 57
51 53 12 -2 22 -12 24 -22z m-10708 -116 c0 -39 -13 -54 -23 -27 -7 18 3 67
14 67 5 0 9 -18 9 -40z m-1616 -20 l42 0 -4 -37 c-3 -21 -10 -41 -16 -45 -8
-6 -7 -8 2 -8 6 0 12 -6 12 -14 0 -15 -84 -41 -101 -31 -5 4 -9 17 -9 31 0 14
-4 33 -10 43 -7 14 -5 23 10 36 11 10 21 28 21 39 1 17 2 18 6 4 3 -14 15 -18
47 -18z m3934 -27 c-3 -29 -16 -37 -37 -24 -19 12 -4 51 20 51 16 0 20 -6 17
-27z m-5985 -211 c4 -2 7 -21 7 -43 0 -28 -4 -39 -15 -39 -11 0 -15 -11 -15
-40 l0 -40 51 0 52 0 -6 55 c-6 62 -1 71 27 44 17 -17 18 -19 3 -19 -22 0 -22
-18 0 -42 14 -15 14 -22 3 -46 -7 -15 -15 -22 -17 -14 -3 7 -22 12 -44 12 -36
0 -39 -2 -39 -29 l0 -30 -40 17 c-25 11 -40 24 -40 35 0 9 -4 17 -10 17 -5 0
-15 18 -21 40 -7 22 -15 40 -19 40 -4 0 -2 18 3 40 8 28 17 40 29 40 10 0 18
7 18 17 0 9 8 25 17 35 17 19 18 19 33 -14 8 -18 18 -34 23 -36z m6047 48 c21
-19 22 -20 4 -20 -20 0 -44 17 -44 32 0 14 16 9 40 -12z m3100 -55 c0 -12 -19
-12 -23 0 -4 9 -1 12 9 8 7 -3 14 -7 14 -8z m-2740 -75 c0 -5 -2 -10 -4 -10
-3 0 -8 5 -11 10 -3 6 -1 10 4 10 6 0 11 -4 11 -10z m1927 -12 c-3 -8 -6 -5
-6 6 -1 11 2 17 5 13 3 -3 4 -12 1 -19z m-1967 -28 c0 -22 -4 -40 -10 -40 -5
0 -10 18 -10 40 0 22 5 40 10 40 6 0 10 -18 10 -40z m80 -32 c0 -5 -9 -8 -20
-8 -13 0 -20 7 -20 20 0 18 2 19 20 8 11 -7 20 -16 20 -20z m47 -80 c-3 -7 -5
-2 -5 12 0 14 2 19 5 13 2 -7 2 -19 0 -25z m-87 -68 c0 -11 -7 -20 -15 -20
-18 0 -19 12 -3 28 16 16 18 15 18 -8z m-41 -42 c-1 -52 -1 -52 -11 -20 -6 17
-15 32 -19 32 -5 0 -1 9 8 20 10 11 19 20 20 20 2 0 3 -24 2 -52z m2841 16 c0
-14 7 -32 15 -40 24 -25 17 -34 -26 -34 -44 0 -44 -3 -16 77 12 36 27 34 27
-3z m2350 -19 c9 -11 9 -22 -1 -50 -15 -42 -39 -43 -53 -3 -8 22 -6 32 9 48
22 24 29 25 45 5z m-5190 -71 c0 -8 -4 -12 -10 -9 -5 3 -10 10 -10 16 0 5 5 9
10 9 6 0 10 -7 10 -16z"/>
<path d="M1520 10489 c0 -5 5 -7 10 -4 6 3 10 8 10 11 0 2 -4 4 -10 4 -5 0
-10 -5 -10 -11z"/>
<path d="M13233 8325 c-7 -19 -5 -20 25 -29 25 -8 31 11 10 32 -16 16 -27 15
-35 -3z"/>
<path d="M8450 4941 c0 -36 24 -110 37 -115 25 -10 162 -18 187 -12 47 12 28
34 -76 84 -134 65 -148 69 -148 43z"/>
<path d="M8457 4463 c-12 -11 -8 -23 8 -23 8 0 15 7 15 15 0 16 -12 20 -23 8z"/>
<path d="M9406 4301 c-4 -6 -3 -18 2 -27 8 -15 10 -14 16 2 8 20 -8 42 -18 25z"/>
<path d="M10921 5324 c0 -11 3 -14 6 -6 3 7 2 16 -1 19 -3 4 -6 -2 -5 -13z"/>
<path d="M10992 5200 c0 -14 2 -19 5 -12 2 6 2 18 0 25 -3 6 -5 1 -5 -13z"/>
<path d="M11070 5015 c0 -5 5 -17 10 -25 5 -8 10 -10 10 -5 0 6 -5 17 -10 25
-5 8 -10 11 -10 5z"/>
<path d="M11742 3392 c-18 -14 -20 -20 -10 -30 6 -6 20 -12 30 -12 14 0 16 4
8 24 -5 13 -6 27 -3 30 13 12 -3 5 -25 -12z"/>
<path d="M15202 10410 c0 -14 2 -19 5 -12 2 6 2 18 0 25 -3 6 -5 1 -5 -13z"/>
<path d="M15305 9730 c-14 -22 -25 -45 -25 -51 0 -6 20 -31 45 -55 25 -23 45
-47 45 -53 0 -27 114 12 126 44 6 15 -133 155 -153 155 -7 0 -24 -18 -38 -40z"/>
<path d="M13413 8873 c-61 -18 -69 -33 -18 -33 41 0 105 24 105 39 0 14 -24
13 -87 -6z"/>
<path d="M14775 2465 c-5 -2 -27 -6 -47 -10 -40 -6 -49 -26 -28 -65 9 -16 13
-17 51 -3 32 10 44 11 49 2 13 -20 -1 -48 -37 -69 -42 -25 -43 -25 -43 0 0 29
-34 25 -48 -5 -18 -40 -15 -55 13 -55 14 0 25 6 25 13 1 8 4 7 9 -3 11 -18 3
-70 -10 -70 -5 0 -9 -6 -9 -14 0 -18 -46 -34 -87 -31 -49 4 -55 -6 -32 -53
l21 -42 64 0 c71 0 144 28 144 56 0 9 12 49 26 91 18 53 24 87 21 116 -14 109
-17 130 -19 132 -7 5 -54 13 -63 10z"/>
<path d="M4100 915 c-6 -8 -14 -31 -17 -52 -4 -30 -1 -42 16 -57 12 -11 21
-26 21 -35 0 -9 9 -24 20 -34 12 -10 20 -29 20 -47 0 -16 4 -30 9 -30 21 0 29
75 9 83 -19 7 62 86 90 87 12 0 31 9 42 20 11 11 25 20 30 20 6 0 10 7 10 15
0 8 -7 15 -15 15 -8 0 -15 -5 -15 -12 0 -9 -3 -9 -12 0 -7 7 -25 12 -40 12
-18 0 -28 5 -28 15 0 8 -4 15 -9 15 -5 0 -14 -7 -21 -15 -7 -8 -19 -15 -27
-15 -8 0 -21 7 -29 15 -19 19 -38 19 -54 0z"/>
<path d="M4148 615 c-23 -30 -23 -30 9 -60 30 -27 52 -32 71 -13 18 18 14 40
-13 71 -29 33 -45 34 -67 2z"/>
<path d="M4368 520 c-19 -16 -20 -19 -5 -20 9 0 17 -4 17 -10 0 -15 30 -12 47
5 17 18 17 18 -14 34 -17 9 -26 7 -45 -9z"/>
<path d="M15725 421 c-31 -4 -67 -17 -95 -36 -46 -30 -88 -35 -155 -20 -27 6
-34 2 -63 -34 -19 -23 -40 -41 -46 -41 -7 0 -34 -21 -59 -47 -45 -45 -47 -50
-47 -104 0 -47 5 -63 25 -87 14 -17 25 -35 25 -41 0 -7 28 -11 80 -11 l79 0
11 40 c6 21 17 46 25 54 20 19 19 26 -2 26 -12 0 -8 6 12 16 22 12 47 15 94
11 76 -6 109 6 117 42 11 52 36 110 57 133 65 72 63 66 26 76 -19 5 -33 14
-31 21 1 6 1 10 0 9 -2 -1 -25 -4 -53 -7z m-241 -220 c17 -19 17 -21 -1 -45
-16 -23 -62 -39 -49 -17 3 5 -1 14 -9 21 -19 16 -19 25 1 44 21 21 37 20 58
-3z"/>
<path d="M4185 360 c-3 -11 -11 -20 -16 -20 -5 0 -9 -5 -9 -12 0 -7 -12 -22
-27 -34 -24 -19 -26 -24 -14 -38 15 -18 86 -22 96 -5 4 6 13 8 21 5 8 -3 11 0
7 10 -4 10 1 13 18 12 20 -3 24 2 27 30 2 18 -1 32 -8 32 -6 0 -20 9 -32 20
-12 11 -30 20 -39 20 -10 0 -21 -9 -24 -20z m-10 -90 c3 -5 1 -10 -4 -10 -6 0
-11 5 -11 10 0 6 2 10 4 10 3 0 8 -4 11 -10z"/>
<path d="M1095 161 c-3 -5 -1 -12 5 -16 5 -3 10 1 10 9 0 18 -6 21 -15 7z"/>
<path d="M910 10 c0 -5 11 -10 25 -10 14 0 25 5 25 10 0 6 -11 10 -25 10 -14
0 -25 -4 -25 -10z"/>
</g>
</svg>
